<svg width="26" height="26" viewBox="0 0 26 26" fill="none" xmlns="http://www.w3.org/2000/svg">
<path d="M13 0C20.1797 0 26 5.8203 26 13C26 20.1797 20.1797 26 13 26C5.8204 25.9999 3.29861e-05 20.1796 0 13C0 5.82036 5.82038 9.89599e-05 13 0ZM13.9111 6.01758C13.5567 5.23346 12.4432 5.23337 12.0889 6.01758L10.3555 9.85547C10.2553 10.0773 10.0773 10.2553 9.85547 10.3555L6.01758 12.0889C5.2337 12.4434 5.23367 13.5567 6.01758 13.9111L9.85547 15.6445C10.0773 15.7447 10.2553 15.9227 10.3555 16.1445L12.0889 19.9824C12.4433 20.7665 13.5566 20.7664 13.9111 19.9824L15.6445 16.1445C15.7447 15.9227 15.9227 15.7447 16.1445 15.6445L19.9824 13.9111C20.7667 13.5568 20.7667 12.4433 19.9824 12.0889L16.1445 10.3555C15.9227 10.2553 15.7447 10.0773 15.6445 9.85547L13.9111 6.01758Z" fill="url(#paint0_linear_23_537)"/>
<defs>
<linearGradient id="paint0_linear_23_537" x1="13" y1="0" x2="13" y2="26" gradientUnits="userSpaceOnUse">
<stop stop-color="#E7E7E7"/>
<stop offset="1" stop-color="#646464"/>
</linearGradient>
</defs>
</svg>
