<svg width="24" height="24" viewBox="0 0 24 24" fill="none" xmlns="http://www.w3.org/2000/svg">
<path d="M3.99999 10.6249L2.99999 11.3999C2.76666 11.5666 2.51666 11.6332 2.24999 11.5999C1.98333 11.5666 1.76666 11.4332 1.59999 11.1999C1.43333 10.9666 1.37083 10.7166 1.41249 10.4499C1.45416 10.1832 1.58333 9.96657 1.79999 9.7999L10.775 2.9249C10.9583 2.79157 11.1542 2.69157 11.3625 2.6249C11.5708 2.55824 11.7833 2.5249 12 2.5249C12.2167 2.5249 12.4292 2.55824 12.6375 2.6249C12.8458 2.69157 13.0417 2.79157 13.225 2.9249L22.225 9.7999C22.4417 9.96657 22.5667 10.1874 22.6 10.4624C22.6333 10.7374 22.5667 10.9832 22.4 11.1999C22.2333 11.4166 22.0167 11.5416 21.75 11.5749C21.4833 11.6082 21.2417 11.5416 21.025 11.3749L12 4.5249L5.99999 9.0999V17.9999H9.99999C10.2833 17.9999 10.5208 18.0957 10.7125 18.2874C10.9042 18.4791 11 18.7166 11 18.9999C11 19.2832 10.9042 19.5207 10.7125 19.7124C10.5208 19.9041 10.2833 19.9999 9.99999 19.9999H5.99999C5.44999 19.9999 4.97916 19.8041 4.58749 19.4124C4.19583 19.0207 3.99999 18.5499 3.99999 17.9999V10.6249ZM13.75 22.9999C13.5333 22.9999 13.3542 22.9291 13.2125 22.7874C13.0708 22.6457 13 22.4666 13 22.2499C13 22.0332 13.0708 21.8541 13.2125 21.7124C13.3542 21.5707 13.5333 21.4999 13.75 21.4999H14.425C13.9917 21.0499 13.6458 20.5249 13.3875 19.9249C13.1292 19.3249 13 18.6832 13 17.9999C13 16.9832 13.275 16.0624 13.825 15.2374C14.375 14.4124 15.1 13.8082 16 13.4249C16.1833 13.3416 16.3542 13.3416 16.5125 13.4249C16.6708 13.5082 16.7917 13.6416 16.875 13.8249C16.9583 14.0082 16.9667 14.1957 16.9 14.3874C16.8333 14.5791 16.675 14.7416 16.425 14.8749C15.8417 15.1582 15.375 15.5791 15.025 16.1374C14.675 16.6957 14.5 17.3166 14.5 17.9999C14.5 18.4832 14.5875 18.9332 14.7625 19.3499C14.9375 19.7666 15.1833 20.1332 15.5 20.4499V19.7499C15.5 19.5332 15.5708 19.3541 15.7125 19.2124C15.8542 19.0707 16.0333 18.9999 16.25 18.9999C16.4667 18.9999 16.6458 19.0707 16.7875 19.2124C16.9292 19.3541 17 19.5332 17 19.7499V21.9999C17 22.2832 16.9042 22.5207 16.7125 22.7124C16.5208 22.9041 16.2833 22.9999 16 22.9999H13.75ZM20.025 22.5749C19.8417 22.6582 19.6667 22.6582 19.5 22.5749C19.3333 22.4916 19.2083 22.3582 19.125 22.1749C19.0417 21.9916 19.0333 21.8041 19.1 21.6124C19.1667 21.4207 19.325 21.2582 19.575 21.1249C20.1583 20.8249 20.625 20.3999 20.975 19.8499C21.325 19.2999 21.5 18.6832 21.5 17.9999C21.5 17.5166 21.4125 17.0666 21.2375 16.6499C21.0625 16.2332 20.8167 15.8666 20.5 15.5499V16.2499C20.5 16.4666 20.4292 16.6457 20.2875 16.7874C20.1458 16.9291 19.9667 16.9999 19.75 16.9999C19.5333 16.9999 19.3542 16.9291 19.2125 16.7874C19.0708 16.6457 19 16.4666 19 16.2499V13.9999C19 13.7166 19.0958 13.4791 19.2875 13.2874C19.4792 13.0957 19.7167 12.9999 20 12.9999H22.25C22.4667 12.9999 22.6458 13.0707 22.7875 13.2124C22.9292 13.3541 23 13.5332 23 13.7499C23 13.9666 22.9292 14.1457 22.7875 14.2874C22.6458 14.4291 22.4667 14.4999 22.25 14.4999H21.575C22.0083 14.9499 22.3542 15.4749 22.6125 16.0749C22.8708 16.6749 23 17.3166 23 17.9999C23 19.0166 22.725 19.9374 22.175 20.7624C21.625 21.5874 20.9083 22.1916 20.025 22.5749Z" fill="#E3E3E3"/>
</svg>
