<svg width="24" height="24" viewBox="0 0 24 24" fill="none" xmlns="http://www.w3.org/2000/svg">
<path d="M9 18C8.45 18 7.97917 17.8042 7.5875 17.4125C7.19583 17.0208 7 16.55 7 16V4C7 3.45 7.19583 2.97917 7.5875 2.5875C7.97917 2.19583 8.45 2 9 2H18C18.55 2 19.0208 2.19583 19.4125 2.5875C19.8042 2.97917 20 3.45 20 4V16C20 16.55 19.8042 17.0208 19.4125 17.4125C19.0208 17.8042 18.55 18 18 18H9ZM9 16H18V4H9V16ZM4 8C3.71667 8 3.47917 7.90417 3.2875 7.7125C3.09583 7.52083 3 7.28333 3 7C3 6.71667 3.09583 6.47917 3.2875 6.2875C3.47917 6.09583 3.71667 6 4 6C4.28333 6 4.52083 6.09583 4.7125 6.2875C4.90417 6.47917 5 6.71667 5 7C5 7.28333 4.90417 7.52083 4.7125 7.7125C4.52083 7.90417 4.28333 8 4 8ZM4 11.5C3.71667 11.5 3.47917 11.4042 3.2875 11.2125C3.09583 11.0208 3 10.7833 3 10.5C3 10.2167 3.09583 9.97917 3.2875 9.7875C3.47917 9.59583 3.71667 9.5 4 9.5C4.28333 9.5 4.52083 9.59583 4.7125 9.7875C4.90417 9.97917 5 10.2167 5 10.5C5 10.7833 4.90417 11.0208 4.7125 11.2125C4.52083 11.4042 4.28333 11.5 4 11.5ZM4 15C3.71667 15 3.47917 14.9042 3.2875 14.7125C3.09583 14.5208 3 14.2833 3 14C3 13.7167 3.09583 13.4792 3.2875 13.2875C3.47917 13.0958 3.71667 13 4 13C4.28333 13 4.52083 13.0958 4.7125 13.2875C4.90417 13.4792 5 13.7167 5 14C5 14.2833 4.90417 14.5208 4.7125 14.7125C4.52083 14.9042 4.28333 15 4 15ZM4 18.5C3.71667 18.5 3.47917 18.4042 3.2875 18.2125C3.09583 18.0208 3 17.7833 3 17.5C3 17.2167 3.09583 16.9792 3.2875 16.7875C3.47917 16.5958 3.71667 16.5 4 16.5C4.28333 16.5 4.52083 16.5958 4.7125 16.7875C4.90417 16.9792 5 17.2167 5 17.5C5 17.7833 4.90417 18.0208 4.7125 18.2125C4.52083 18.4042 4.28333 18.5 4 18.5ZM4 22C3.71667 22 3.47917 21.9042 3.2875 21.7125C3.09583 21.5208 3 21.2833 3 21C3 20.7167 3.09583 20.4792 3.2875 20.2875C3.47917 20.0958 3.71667 20 4 20C4.28333 20 4.52083 20.0958 4.7125 20.2875C4.90417 20.4792 5 20.7167 5 21C5 21.2833 4.90417 21.5208 4.7125 21.7125C4.52083 21.9042 4.28333 22 4 22ZM7.5 22C7.21667 22 6.97917 21.9042 6.7875 21.7125C6.59583 21.5208 6.5 21.2833 6.5 21C6.5 20.7167 6.59583 20.4792 6.7875 20.2875C6.97917 20.0958 7.21667 20 7.5 20C7.78333 20 8.02083 20.0958 8.2125 20.2875C8.40417 20.4792 8.5 20.7167 8.5 21C8.5 21.2833 8.40417 21.5208 8.2125 21.7125C8.02083 21.9042 7.78333 22 7.5 22ZM11 22C10.7167 22 10.4792 21.9042 10.2875 21.7125C10.0958 21.5208 10 21.2833 10 21C10 20.7167 10.0958 20.4792 10.2875 20.2875C10.4792 20.0958 10.7167 20 11 20C11.2833 20 11.5208 20.0958 11.7125 20.2875C11.9042 20.4792 12 20.7167 12 21C12 21.2833 11.9042 21.5208 11.7125 21.7125C11.5208 21.9042 11.2833 22 11 22ZM14.5 22C14.2167 22 13.9792 21.9042 13.7875 21.7125C13.5958 21.5208 13.5 21.2833 13.5 21C13.5 20.7167 13.5958 20.4792 13.7875 20.2875C13.9792 20.0958 14.2167 20 14.5 20C14.7833 20 15.0208 20.0958 15.2125 20.2875C15.4042 20.4792 15.5 20.7167 15.5 21C15.5 21.2833 15.4042 21.5208 15.2125 21.7125C15.0208 21.9042 14.7833 22 14.5 22Z" fill="#E3E3E3"/>
</svg>
