<svg width="32" height="32" viewBox="0 0 32 32" fill="none" xmlns="http://www.w3.org/2000/svg">
<path d="M15.3333 18C15.8 18 16.2389 17.9389 16.65 17.8167C17.0611 17.6944 17.4666 17.5111 17.8666 17.2667L19.9 19.3667C20.0778 19.5667 20.3055 19.6611 20.5833 19.65C20.8611 19.6389 21.1 19.5444 21.3 19.3667C21.5 19.1667 21.6055 18.9278 21.6166 18.65C21.6278 18.3722 21.5333 18.1333 21.3333 17.9333L19.2666 15.8667C19.5111 15.4889 19.6944 15.0889 19.8166 14.6667C19.9389 14.2444 20 13.8 20 13.3333C20 12.0222 19.5389 10.9167 18.6166 10.0167C17.6944 9.11667 16.6 8.66667 15.3333 8.66667C14.0666 8.66667 12.9722 9.11667 12.05 10.0167C11.1278 10.9167 10.6666 12.0222 10.6666 13.3333C10.6666 14.6444 11.1278 15.75 12.05 16.65C12.9722 17.55 14.0666 18 15.3333 18ZM15.3333 16C14.6 16 13.9722 15.7389 13.45 15.2167C12.9278 14.6944 12.6666 14.0667 12.6666 13.3333C12.6666 12.6 12.9278 11.9722 13.45 11.45C13.9722 10.9278 14.6 10.6667 15.3333 10.6667C16.0444 10.6667 16.6666 10.9278 17.2 11.45C17.7333 11.9722 18 12.6 18 13.3333C18 14.0667 17.7389 14.6944 17.2166 15.2167C16.6944 15.7389 16.0666 16 15.3333 16ZM2.66665 28C2.28887 28 1.9722 27.8722 1.71665 27.6167C1.46109 27.3611 1.33331 27.0444 1.33331 26.6667C1.33331 26.2889 1.46109 25.9722 1.71665 25.7167C1.9722 25.4611 2.28887 25.3333 2.66665 25.3333H29.3333C29.7111 25.3333 30.0278 25.4611 30.2833 25.7167C30.5389 25.9722 30.6666 26.2889 30.6666 26.6667C30.6666 27.0444 30.5389 27.3611 30.2833 27.6167C30.0278 27.8722 29.7111 28 29.3333 28H2.66665ZM5.33331 24C4.59998 24 3.9722 23.7389 3.44998 23.2167C2.92776 22.6944 2.66665 22.0667 2.66665 21.3333V6.66667C2.66665 5.93333 2.92776 5.30556 3.44998 4.78333C3.9722 4.26111 4.59998 4 5.33331 4H26.6666C27.4 4 28.0278 4.26111 28.55 4.78333C29.0722 5.30556 29.3333 5.93333 29.3333 6.66667V21.3333C29.3333 22.0667 29.0722 22.6944 28.55 23.2167C28.0278 23.7389 27.4 24 26.6666 24H5.33331ZM5.33331 21.3333H26.6666V6.66667H5.33331V21.3333Z" fill="#E3E3E3"/>
</svg>
