<svg width="114" height="18" viewBox="0 0 114 18" fill="none" xmlns="http://www.w3.org/2000/svg">
<path fill-rule="evenodd" clip-rule="evenodd" d="M6.919 18C15.2207 18 19.7615 11.0739 19.7615 5.06838C19.7615 4.87122 19.7615 4.67554 19.7483 4.4806C20.6316 3.83817 21.3939 3.04053 22 2.12785C21.1772 2.49558 20.3027 2.73674 19.4084 2.84307C20.35 2.27486 21.0551 1.38216 21.3928 0.328814C20.5062 0.858257 19.5371 1.23192 18.5262 1.4324C16.8168 -0.397397 13.9579 -0.486052 12.1396 1.2352C10.9681 2.34504 10.4698 3.99979 10.8339 5.57815C7.205 5.39429 3.8236 3.66864 1.5312 0.829797C0.3333 2.90658 0.946 5.5624 2.9293 6.89598C2.211 6.87493 1.5081 6.68019 0.88 6.32798V6.38565C0.8811 8.54885 2.3958 10.4115 4.5012 10.8401C3.8368 11.0229 3.1394 11.0494 2.464 10.9176C3.0547 12.7695 4.7498 14.038 6.6803 14.0745C5.082 15.3394 3.1075 16.0263 1.0747 16.0241C0.7161 16.023 0.3575 16.0019 0 15.9587C2.0647 17.2923 4.466 18 6.919 17.9967" fill="white"/>
<path fill-rule="evenodd" clip-rule="evenodd" d="M62 0C59.5558 0 59.2493 0.0103604 58.2893 0.0541601C57.3314 0.0978524 56.6771 0.250008 56.1047 0.472507C55.5128 0.702473 55.0109 1.01022 54.5106 1.51055C54.0102 2.01092 53.7025 2.51283 53.4725 3.10466C53.25 3.67713 53.0979 4.33138 53.0542 5.28932C53.0104 6.24927 53 6.55576 53 9.00007C53 11.4443 53.0104 11.7507 53.0542 12.7107C53.0979 13.6687 53.25 14.3229 53.4725 14.8954C53.7025 15.4872 54.0102 15.9891 54.5106 16.4895C55.0109 16.9898 55.5128 17.2976 56.1047 17.5276C56.6771 17.75 57.3314 17.9022 58.2893 17.9459C59.2493 17.9896 59.5558 18 62 18C64.4443 18 64.7508 17.9896 65.7107 17.9459C66.6687 17.9022 67.3229 17.75 67.8954 17.5276C68.4872 17.2976 68.9891 16.9898 69.4895 16.4895C69.9898 15.9891 70.2976 15.4872 70.5276 14.8954C70.75 14.3229 70.9022 13.6687 70.9458 12.7107C70.9897 11.7507 71 11.4443 71 9.00007C71 6.55576 70.9897 6.24927 70.9458 5.28932C70.9022 4.33138 70.75 3.67713 70.5276 3.10466C70.2976 2.51283 69.9898 2.01092 69.4895 1.51055C68.9891 1.01022 68.4872 0.702473 67.8954 0.472507C67.3229 0.250008 66.6687 0.0978524 65.7107 0.0541601C64.7508 0.0103604 64.4443 0 62 0ZM59 9.00007C59 10.6569 60.3431 12 62 12C63.6569 12 65.0001 10.6569 65.0001 9.00007C65.0001 7.34315 63.6569 6.00001 62 6.00001C60.3431 6.00001 59 7.34315 59 9.00007ZM57.3784 9.00007C57.3784 6.44754 59.4475 4.37839 62 4.37839C64.5525 4.37839 66.6216 6.44754 66.6216 9.00007C66.6216 11.5525 64.5525 13.6216 62 13.6216C59.4475 13.6216 57.3784 11.5525 57.3784 9.00007ZM66.8042 5.27578C67.4007 5.27578 67.8843 4.79227 67.8843 4.19579C67.8843 3.59932 67.4007 3.11577 66.8042 3.11577C66.2078 3.11577 65.7243 3.59932 65.7243 4.19579C65.7243 4.79227 66.2078 5.27578 66.8042 5.27578Z" fill="white"/>
<path d="M108 8.99998C108 7.3427 109.344 6.00042 111 6.00042C112.658 6.00042 114 7.34141 114 8.99998C114 10.6573 112.658 11.9996 111 11.9996C109.345 11.9996 108 10.6586 108 8.99998Z" fill="white"/>
<path d="M102 15.0004C102 13.3431 103.344 11.9996 105 11.9996H108V15.0004C108 16.6564 106.656 18 105 18C103.344 18 102 16.6564 102 15.0004Z" fill="white"/>
<path d="M108 0V6.00042L111 6.00042C112.658 6.00042 114 4.65685 114 2.99957C114 1.34357 112.658 0 111 0H108Z" fill="white"/>
<path d="M102 2.99957C102 4.65685 103.344 6.00042 105 6.00042H108V0H105C103.344 0 102 1.34357 102 2.99957Z" fill="white"/>
<path d="M102 8.99998C102 10.6573 103.344 11.9996 105 11.9996H108L108 6.00042H105C103.344 6.00042 102 7.34141 102 8.99998Z" fill="white"/>
</svg>
