<svg width="24" height="24" viewBox="0 0 24 24" fill="none" xmlns="http://www.w3.org/2000/svg">
<path d="M10.6 20.6L4.3 14.375C3.93333 14.0083 3.73333 13.5667 3.7 13.05C3.66667 12.5333 3.81667 12.075 4.15 11.675L7.4 7.725C7.58333 7.49167 7.8125 7.3125 8.0875 7.1875C8.3625 7.0625 8.65 7 8.95 7H15.05C15.35 7 15.6375 7.0625 15.9125 7.1875C16.1875 7.3125 16.4167 7.49167 16.6 7.725L19.85 11.675C20.1833 12.075 20.3333 12.5333 20.3 13.05C20.2667 13.5667 20.0667 14.0083 19.7 14.375L13.4 20.6C13.0167 20.9833 12.55 21.175 12 21.175C11.45 21.175 10.9833 20.9833 10.6 20.6ZM3.175 4.175C3.375 3.975 3.60833 3.875 3.875 3.875C4.14167 3.875 4.375 3.975 4.575 4.175L5.3 4.875C5.5 5.075 5.6 5.3125 5.6 5.5875C5.6 5.8625 5.5 6.1 5.3 6.3C5.1 6.5 4.8625 6.6 4.5875 6.6C4.3125 6.6 4.075 6.5 3.875 6.3L3.175 5.575C2.975 5.375 2.875 5.14167 2.875 4.875C2.875 4.60833 2.975 4.375 3.175 4.175ZM12 2C12.2833 2 12.5208 2.09583 12.7125 2.2875C12.9042 2.47917 13 2.71667 13 3V4C13 4.28333 12.9042 4.52083 12.7125 4.7125C12.5208 4.90417 12.2833 5 12 5C11.7167 5 11.4792 4.90417 11.2875 4.7125C11.0958 4.52083 11 4.28333 11 4V3C11 2.71667 11.0958 2.47917 11.2875 2.2875C11.4792 2.09583 11.7167 2 12 2ZM20.8 4.175C21 4.375 21.0958 4.60833 21.0875 4.875C21.0792 5.14167 20.975 5.375 20.775 5.575L20.075 6.3C19.875 6.5 19.6417 6.6 19.375 6.6C19.1083 6.6 18.875 6.5 18.675 6.3C18.475 6.1 18.375 5.8625 18.375 5.5875C18.375 5.3125 18.475 5.075 18.675 4.875L19.375 4.175C19.575 3.975 19.8125 3.875 20.0875 3.875C20.3625 3.875 20.6 3.975 20.8 4.175ZM6.75 14L12 19.2L17.25 14H6.75ZM6.475 12H17.525L15.05 9H8.95L6.475 12Z" fill="#E3E3E3"/>
</svg>
