<svg width="24" height="24" viewBox="0 0 24 24" fill="none" xmlns="http://www.w3.org/2000/svg">
<path d="M4 21.9999C3.45 21.9999 2.97917 21.8041 2.5875 21.4124C2.19583 21.0207 2 20.5499 2 19.9999V7.9999C2 7.4499 2.19583 6.97907 2.5875 6.5874C2.97917 6.19574 3.45 5.9999 4 5.9999H8L11.3 2.6999C11.5 2.4999 11.7333 2.3999 12 2.3999C12.2667 2.3999 12.5 2.4999 12.7 2.6999L16 5.9999H20C20.55 5.9999 21.0208 6.19574 21.4125 6.5874C21.8042 6.97907 22 7.4499 22 7.9999V19.9999C22 20.5499 21.8042 21.0207 21.4125 21.4124C21.0208 21.8041 20.55 21.9999 20 21.9999H4ZM4 19.9999H20V7.9999H4V19.9999ZM11.25 16.9999L9.4 14.5249C9.3 14.3916 9.16667 14.3249 9 14.3249C8.83333 14.3249 8.7 14.3916 8.6 14.5249L6.6 17.1999C6.46667 17.3666 6.45 17.5416 6.55 17.7249C6.65 17.9082 6.8 17.9999 7 17.9999H17C17.2 17.9999 17.35 17.9082 17.45 17.7249C17.55 17.5416 17.5333 17.3666 17.4 17.1999L14.65 13.5249C14.55 13.3916 14.4167 13.3249 14.25 13.3249C14.0833 13.3249 13.95 13.3916 13.85 13.5249L11.25 16.9999ZM17.5 12.9999C17.9167 12.9999 18.2708 12.8541 18.5625 12.5624C18.8542 12.2707 19 11.9166 19 11.4999C19 11.0832 18.8542 10.7291 18.5625 10.4374C18.2708 10.1457 17.9167 9.9999 17.5 9.9999C17.0833 9.9999 16.7292 10.1457 16.4375 10.4374C16.1458 10.7291 16 11.0832 16 11.4999C16 11.9166 16.1458 12.2707 16.4375 12.5624C16.7292 12.8541 17.0833 12.9999 17.5 12.9999ZM10.1 5.9999H13.9L12 4.0999L10.1 5.9999Z" fill="#E3E3E3"/>
</svg>
