<svg width="25" height="24" viewBox="0 0 25 24" fill="none" xmlns="http://www.w3.org/2000/svg">
<path d="M8.04297 7.23773C8.33067 6.29274 9.66933 6.29274 9.95703 7.23773L10.6465 9.50531C11.1803 11.259 12.553 12.6316 14.3066 13.1655L16.5742 13.8549C17.5192 14.1426 17.5192 15.4813 16.5742 15.769L14.3066 16.4584C12.553 16.9923 11.1803 18.3649 10.6465 20.1186L9.95703 22.3862C9.66933 23.3312 8.33067 23.3312 8.04297 22.3862L7.35352 20.1186C6.81969 18.3649 5.44704 16.9923 3.69336 16.4584L1.42578 15.769C0.480791 15.4813 0.480788 14.1426 1.42578 13.8549L3.69336 13.1655C5.44704 12.6316 6.81969 11.259 7.35352 9.50531L8.04297 7.23773Z" stroke="#B8B8B8"/>
<path d="M18.4341 1.56043C18.5769 1.09123 19.2412 1.09123 19.384 1.56043C19.9622 3.46012 21.4489 4.94685 23.3486 5.52506C23.8178 5.66787 23.8178 6.33213 23.3486 6.47494C21.4489 7.05315 19.9622 8.53988 19.384 10.4396C19.2412 10.9088 18.5769 10.9088 18.4341 10.4396C17.8559 8.53988 16.3692 7.05315 14.4695 6.47494C14.0003 6.33214 14.0003 5.66787 14.4695 5.52506C16.3692 4.94685 17.8559 3.46012 18.4341 1.56043Z" fill="#B8B8B8"/>
</svg>
