<svg width="128" height="28" viewBox="0 0 128 28" fill="none" xmlns="http://www.w3.org/2000/svg">
<rect width="28" height="28" rx="14" fill="black"/>
<path fill-rule="evenodd" clip-rule="evenodd" d="M10.8465 21C17.2614 21 20.7703 15.613 20.7703 10.9421C20.7703 10.7887 20.7702 10.6365 20.76 10.4849C21.4426 9.98525 22.0317 9.36485 22.5 8.65499C21.8642 8.94101 21.1884 9.12858 20.4974 9.21127C21.225 8.76933 21.7698 8.07502 22.0308 7.25574C21.3457 7.66753 20.5968 7.95816 19.8157 8.11409C18.4948 6.69091 16.2857 6.62196 14.8806 7.96071C13.9754 8.82392 13.5903 10.1109 13.8716 11.3386C11.0675 11.1956 8.4546 9.85338 6.6832 7.6454C5.75755 9.26068 6.231 11.3263 7.76355 12.3635C7.2085 12.3472 6.66535 12.1957 6.18 11.9218V11.9666C6.18085 13.6491 7.3513 15.0978 8.9782 15.4312C8.4648 15.5733 7.9259 15.594 7.404 15.4914C7.86045 16.9319 9.1703 17.9184 10.6621 17.9469C9.427 18.9307 7.90125 19.4649 6.33045 19.4632C6.05335 19.4623 5.77625 19.4459 5.5 19.4123C7.09545 20.4496 8.951 21 10.8465 20.9974" fill="white"/>
<path d="M39 8V20" stroke="white"/>
<rect x="50" width="28" height="28" rx="14" fill="black"/>
<path fill-rule="evenodd" clip-rule="evenodd" d="M64 7.0022C62.0995 7.0022 61.8612 7.01025 61.1148 7.04431C60.37 7.07828 59.8613 7.19659 59.4162 7.36959C58.956 7.54839 58.5658 7.78767 58.1767 8.1767C57.7877 8.56575 57.5484 8.956 57.3696 9.41617C57.1966 9.86128 57.0783 10.37 57.0443 11.1148C57.0103 11.8612 57.0022 12.0995 57.0022 14C57.0022 15.9005 57.0103 16.1388 57.0443 16.8852C57.0783 17.63 57.1966 18.1387 57.3696 18.5838C57.5484 19.044 57.7877 19.4342 58.1767 19.8233C58.5658 20.2123 58.956 20.4516 59.4162 20.6304C59.8613 20.8034 60.37 20.9217 61.1148 20.9557C61.8612 20.9897 62.0995 20.9978 64 20.9978C65.9005 20.9978 66.1388 20.9897 66.8852 20.9557C67.63 20.9217 68.1387 20.8034 68.5838 20.6304C69.044 20.4516 69.4342 20.2123 69.8233 19.8233C70.2123 19.4342 70.4516 19.044 70.6305 18.5838C70.8034 18.1387 70.9217 17.63 70.9557 16.8852C70.9897 16.1388 70.9978 15.9005 70.9978 14C70.9978 12.0995 70.9897 11.8612 70.9557 11.1148C70.9217 10.37 70.8034 9.86128 70.6305 9.41617C70.4516 8.956 70.2123 8.56575 69.8233 8.1767C69.4342 7.78767 69.044 7.54839 68.5838 7.36959C68.1387 7.19659 67.63 7.07828 66.8852 7.04431C66.1388 7.01025 65.9005 7.0022 64 7.0022ZM61.6674 14C61.6674 15.2883 62.7118 16.3326 64 16.3326C65.2883 16.3326 66.3326 15.2883 66.3326 14C66.3326 12.7117 65.2883 11.6674 64 11.6674C62.7118 11.6674 61.6674 12.7117 61.6674 14ZM60.4066 14C60.4066 12.0154 62.0154 10.4065 64 10.4065C65.9846 10.4065 67.5935 12.0154 67.5935 14C67.5935 15.9846 65.9846 17.5934 64 17.5934C62.0154 17.5934 60.4066 15.9846 60.4066 14ZM67.7354 11.1043C68.1993 11.1043 68.5752 10.7283 68.5752 10.2646C68.5752 9.80078 68.1993 9.42481 67.7354 9.42481C67.2717 9.42481 66.8957 9.80078 66.8957 10.2646C66.8957 10.7283 67.2717 11.1043 67.7354 11.1043Z" fill="white"/>
<path d="M89 8V20" stroke="white"/>
<rect x="100" width="28" height="28" rx="14" fill="black"/>
<path d="M114 14C114 12.711 115.019 11.667 116.275 11.667C117.532 11.667 118.55 12.71 118.55 14C118.55 15.289 117.532 16.333 116.275 16.333C115.02 16.333 114 15.29 114 14Z" fill="white"/>
<path d="M109.45 18.667C109.45 17.378 110.469 16.333 111.725 16.333H114V18.667C114 19.955 112.981 21 111.725 21C110.469 21 109.45 19.955 109.45 18.667Z" fill="white"/>
<path d="M114 7V11.667L116.275 11.667C117.532 11.667 118.55 10.622 118.55 9.333C118.55 8.045 117.532 7 116.275 7H114Z" fill="white"/>
<path d="M109.45 9.333C109.45 10.622 110.469 11.667 111.725 11.667H114V7H111.725C110.469 7 109.45 8.045 109.45 9.333Z" fill="white"/>
<path d="M109.45 14C109.45 15.289 110.469 16.333 111.725 16.333H114L114 11.667H111.725C110.469 11.667 109.45 12.71 109.45 14Z" fill="white"/>
</svg>
