<svg width="24" height="24" viewBox="0 0 24 24" fill="none" xmlns="http://www.w3.org/2000/svg">
<path d="M4.82499 12.0249L8.69999 15.8999C8.88332 16.0832 8.97499 16.3166 8.97499 16.5999C8.97499 16.8832 8.88332 17.1166 8.69999 17.2999C8.51665 17.4832 8.28332 17.5749 7.99999 17.5749C7.71665 17.5749 7.48332 17.4832 7.29999 17.2999L2.69999 12.6999C2.59999 12.5999 2.52915 12.4916 2.48749 12.3749C2.44582 12.2582 2.42499 12.1332 2.42499 11.9999C2.42499 11.8666 2.44582 11.7416 2.48749 11.6249C2.52915 11.5082 2.59999 11.3999 2.69999 11.2999L7.29999 6.6999C7.49999 6.4999 7.73749 6.3999 8.01249 6.3999C8.28749 6.3999 8.52499 6.4999 8.72499 6.6999C8.92499 6.8999 9.02499 7.1374 9.02499 7.4124C9.02499 7.6874 8.92499 7.9249 8.72499 8.1249L4.82499 12.0249ZM19.175 11.9749L15.3 8.0999C15.1167 7.91657 15.025 7.68324 15.025 7.3999C15.025 7.11657 15.1167 6.88324 15.3 6.6999C15.4833 6.51657 15.7167 6.4249 16 6.4249C16.2833 6.4249 16.5167 6.51657 16.7 6.6999L21.3 11.2999C21.4 11.3999 21.4708 11.5082 21.5125 11.6249C21.5542 11.7416 21.575 11.8666 21.575 11.9999C21.575 12.1332 21.5542 12.2582 21.5125 12.3749C21.4708 12.4916 21.4 12.5999 21.3 12.6999L16.7 17.2999C16.5 17.4999 16.2667 17.5957 16 17.5874C15.7333 17.5791 15.5 17.4749 15.3 17.2749C15.1 17.0749 15 16.8374 15 16.5624C15 16.2874 15.1 16.0499 15.3 15.8499L19.175 11.9749Z" fill="#E3E3E3"/>
</svg>
