<svg width="289" height="48" viewBox="0 0 289 48" fill="none" xmlns="http://www.w3.org/2000/svg">
<path d="M57.7604 3.97491L45.2146 47.2642H38.8796L28.8181 12.4216L18.3839 47.2642L12.111 47.3263L-2.53164e-05 3.97491H6.02445L15.4649 40.6807L25.899 3.97491H32.234L42.1713 40.5565L51.6738 3.97491H57.7604ZM80.8388 12.6079C83.406 12.6079 85.7247 13.1669 87.7949 14.2848C89.8652 15.3614 91.48 16.9969 92.6393 19.1914C93.8401 21.3858 94.4405 24.0565 94.4405 27.2033V47.2642H88.8508V28.0107C88.8508 24.6155 88.0019 22.0276 86.3043 20.2472C84.6067 18.4254 82.288 17.5145 79.3482 17.5145C76.3671 17.5145 73.9863 18.4461 72.2058 20.3093C70.4668 22.1725 69.5973 24.8846 69.5973 28.4455V47.2642H63.9455V1.30427H69.5973V18.0734C70.7152 16.3344 72.2472 14.9887 74.1933 14.0364C76.1807 13.0841 78.3959 12.6079 80.8388 12.6079ZM118.517 47.8231C115.328 47.8231 112.43 47.0985 109.821 45.6494C107.254 44.2002 105.225 42.1506 103.735 39.5007C102.286 36.8093 101.561 33.7039 101.561 30.1845C101.561 26.7064 102.306 23.6424 103.797 20.9925C105.329 18.3012 107.399 16.2516 110.008 14.8438C112.616 13.3946 115.535 12.67 118.765 12.67C121.995 12.67 124.914 13.3946 127.522 14.8438C130.131 16.2516 132.18 18.2804 133.671 20.9304C135.203 23.5803 135.969 26.665 135.969 30.1845C135.969 33.7039 135.182 36.8093 133.609 39.5007C132.077 42.1506 129.986 44.2002 127.336 45.6494C124.686 47.0985 121.746 47.8231 118.517 47.8231ZM118.517 42.8545C120.545 42.8545 122.45 42.3783 124.23 41.426C126.011 40.4737 127.439 39.0452 128.516 37.1406C129.634 35.2359 130.193 32.9172 130.193 30.1845C130.193 27.4517 129.655 25.133 128.578 23.2284C127.501 21.3237 126.094 19.916 124.355 19.005C122.616 18.0527 120.732 17.5766 118.703 17.5766C116.633 17.5766 114.728 18.0527 112.989 19.005C111.291 19.916 109.925 21.3237 108.89 23.2284C107.855 25.133 107.337 27.4517 107.337 30.1845C107.337 32.9586 107.834 35.298 108.828 37.2027C109.863 39.1073 111.229 40.5358 112.927 41.4881C114.624 42.399 116.488 42.8545 118.517 42.8545Z" fill="white"/>
<path d="M185.547 37.6374H166.666L163.188 47.2642H157.225L172.877 4.22335H179.398L194.987 47.2642H189.025L185.547 37.6374ZM183.932 33.0414L176.106 11.1794L168.281 33.0414H183.932ZM242.737 12.6079C245.387 12.6079 247.747 13.1669 249.818 14.2848C251.888 15.3614 253.523 16.9969 254.724 19.1914C255.925 21.3858 256.525 24.0565 256.525 27.2033V47.2642H250.936V28.0107C250.936 24.6155 250.087 22.0276 248.389 20.2472C246.733 18.4254 244.476 17.5145 241.619 17.5145C238.68 17.5145 236.34 18.4668 234.601 20.3714C232.862 22.2347 231.993 24.9467 231.993 28.5076V47.2642H226.403V28.0107C226.403 24.6155 225.554 22.0276 223.856 20.2472C222.2 18.4254 219.944 17.5145 217.087 17.5145C214.147 17.5145 211.808 18.4668 210.069 20.3714C208.329 22.2347 207.46 24.9467 207.46 28.5076V47.2642H201.808V13.229H207.46V18.1355C208.578 16.3551 210.069 14.9887 211.932 14.0364C213.836 13.0841 215.927 12.6079 218.205 12.6079C221.062 12.6079 223.587 13.2497 225.782 14.5333C227.976 15.8168 229.612 17.7008 230.688 20.1851C231.641 17.7836 233.214 15.9203 235.409 14.5954C237.603 13.2704 240.046 12.6079 242.737 12.6079ZM285.274 7.70139C284.197 7.70139 283.286 7.32875 282.541 6.58345C281.795 5.83815 281.423 4.92724 281.423 3.8507C281.423 2.77416 281.795 1.86324 282.541 1.11795C283.286 0.372652 284.197 4.53784e-06 285.274 4.53784e-06C286.309 4.53784e-06 287.178 0.372652 287.882 1.11795C288.627 1.86324 289 2.77416 289 3.8507C289 4.92724 288.627 5.83815 287.882 6.58345C287.178 7.32875 286.309 7.70139 285.274 7.70139ZM288.006 13.229V47.2642H282.354V13.229H288.006Z" fill="url(#paint0_linear_23_414)"/>
<defs>
<linearGradient id="paint0_linear_23_414" x1="200.581" y1="9.0797" x2="211.625" y2="44.9626" gradientUnits="userSpaceOnUse">
<stop offset="0.0907097" stop-color="#B8B8B8"/>
<stop offset="1" stop-color="#525252"/>
</linearGradient>
</defs>
</svg>
